<?xml version="1.0" encoding="UTF-8"?>
<svg version="1.1" xmlns="http://www.w3.org/2000/svg" width="512" height="512">
<path d="M0 0 C1.09730438 -0.00350464 2.19460876 -0.00700928 3.32516479 -0.01062012 C6.92387364 -0.01936577 10.52238317 -0.0136136 14.12109375 -0.00683594 C16.63875364 -0.00818464 19.15641327 -0.01012689 21.67407227 -0.01263428 C26.93931075 -0.01557584 32.20449817 -0.01151229 37.46972656 -0.00195312 C43.5330116 0.00892871 49.59616207 0.00540212 55.65944386 -0.00560594 C61.52313062 -0.0158203 67.38676678 -0.01468224 73.25045776 -0.00884247 C75.73184224 -0.00751319 78.21323017 -0.00912824 80.6946106 -0.01380157 C84.16889397 -0.01890973 87.64292295 -0.01109632 91.1171875 0 C92.13150848 -0.00404846 93.14582947 -0.00809692 94.19088745 -0.01226807 C104.66913746 0.04938359 113.43831398 1.24582017 121.55859375 8.25878906 C127.10748953 14.28137107 128.80344355 20.51581783 128.83274841 28.67059326 C128.83798509 29.39553647 128.84322177 30.12047968 128.84861714 30.86739087 C128.86356337 33.28534839 128.8643211 35.70309329 128.86499023 38.12109375 C128.87261538 39.85942947 128.88104349 41.59776183 128.89021301 43.33609009 C128.91213079 48.05113844 128.92095335 52.76612194 128.92603946 57.48121548 C128.92968648 60.4298396 128.93592837 63.37844684 128.94304085 66.32706451 C128.96752664 76.62202193 128.9805852 86.91692902 128.98413086 97.21191406 C128.98776465 106.79476788 129.01765107 116.37730114 129.05953544 125.96005702 C129.09427459 134.19806916 129.10967993 142.43597524 129.11037689 150.67406011 C129.11116852 155.58950953 129.11985445 160.50463232 129.14837456 165.4200058 C129.1746171 170.04619417 129.17672602 174.67178653 129.16071892 179.29801559 C129.1589093 180.99024382 129.165551 182.68250681 129.18153763 184.37466049 C129.27793196 195.24571495 128.23839486 203.24190192 121.37109375 212.07128906 C113.26735732 218.37419517 106.13802941 219.9949707 95.99975586 219.88989258 C94.17582558 219.90062553 94.17582558 219.90062553 92.31504822 219.91157532 C89.00878388 219.92550049 85.70410547 219.91724586 82.39797282 219.89748502 C78.92152158 219.88098024 75.44511726 219.88992755 71.96864319 219.89500427 C66.13415642 219.89951155 60.29999168 219.88373939 54.46557617 219.85571289 C47.73980619 219.82365182 41.01461617 219.82368684 34.28880495 219.84092766 C27.79180889 219.85684189 21.29502353 219.85002888 14.79803658 219.83299065 C12.0450326 219.82615482 9.29219929 219.82711651 6.53919792 219.8345356 C2.68858953 219.8436844 -1.16143287 219.81955842 -5.01196289 219.79223633 C-6.14208801 219.79876221 -7.27221313 219.80528809 -8.43658447 219.81201172 C-16.58543337 219.71401597 -22.87110308 218.26108946 -29.19140625 212.94628906 C-29.93390625 212.05941406 -30.67640625 211.17253906 -31.44140625 210.25878906 C-31.88355469 209.75605469 -32.32570313 209.25332031 -32.78125 208.73535156 C-39.97895335 199.84775264 -38.73542902 187.90497093 -38.71606445 177.07568359 C-38.72041897 175.45822923 -38.72560457 173.84077693 -38.73155212 172.22332764 C-38.74487381 167.85546129 -38.74552845 163.48768183 -38.74298882 159.11979914 C-38.74191446 155.4620183 -38.74681433 151.8042547 -38.75159425 148.14647758 C-38.7626658 139.51121265 -38.7631401 130.87599124 -38.75708008 122.24072266 C-38.75104169 113.35772471 -38.76335328 104.47488522 -38.78465015 95.5919143 C-38.8023118 87.94147206 -38.80826033 80.29108006 -38.8050124 72.64061821 C-38.80320668 68.08184169 -38.80576433 63.52317822 -38.81972694 58.96442032 C-38.83237525 54.67479288 -38.83029557 50.38541106 -38.81731606 46.09578705 C-38.81496589 44.53018737 -38.81762834 42.96457002 -38.82593918 41.39899063 C-38.88195781 30.01717201 -38.87773719 18.0585438 -31.1640625 8.94238281 C-22.42315475 0.39968159 -11.66481836 -0.04655782 0 0 Z M-7.44140625 31.25878906 C-7.44140625 59.30878906 -7.44140625 87.35878906 -7.44140625 116.25878906 C27.53859375 116.25878906 62.51859375 116.25878906 98.55859375 116.25878906 C98.55859375 88.20878906 98.55859375 60.15878906 98.55859375 31.25878906 C63.57859375 31.25878906 28.59859375 31.25878906 -7.44140625 31.25878906 Z M-7.44140625 147.25878906 C-7.44140625 161.11878906 -7.44140625 174.97878906 -7.44140625 189.25878906 C27.53859375 189.25878906 62.51859375 189.25878906 98.55859375 189.25878906 C98.55859375 175.39878906 98.55859375 161.53878906 98.55859375 147.25878906 C63.57859375 147.25878906 28.59859375 147.25878906 -7.44140625 147.25878906 Z " fill="#000000" transform="translate(365.44140625,292.7412109375)"/>
<path d="M0 0 C2.43276747 1.92237062 4.77809678 3.91400856 7.11328125 5.953125 C8.10328125 6.72849609 8.10328125 6.72849609 9.11328125 7.51953125 C25.26153139 20.50975667 35.1252795 40.21069789 40.11328125 59.953125 C40.35820312 60.91992188 40.603125 61.88671875 40.85546875 62.8828125 C46.4081514 89.73345602 39.8120988 117.26217472 25.11328125 139.953125 C15.19977497 154.13897917 1.8714959 166.58344272 -13.88671875 173.953125 C-14.54671875 173.953125 -15.20671875 173.953125 -15.88671875 173.953125 C-15.86315308 175.38978516 -15.86315308 175.38978516 -15.83911133 176.85546875 C-15.78442163 180.44115645 -15.75022828 184.026808 -15.72192383 187.61279297 C-15.70692545 189.15875468 -15.68651988 190.70467448 -15.66040039 192.25048828 C-15.46839888 203.91363864 -15.81955245 212.27901371 -24.046875 221.2890625 C-25.88671875 222.953125 -25.88671875 222.953125 -29.13671875 224.390625 C-32.89339709 226.52510133 -33.05523083 228.73428581 -34.203125 232.7421875 C-35.69805605 237.57722163 -38.72810011 240.14182167 -42.88671875 242.765625 C-51.51972946 246.81234877 -63.14736957 246.53731963 -72.2265625 244.03125 C-77.3322192 241.66652479 -80.94378898 238.73538587 -83.88671875 233.953125 C-84.8076054 230.98095117 -85.42878208 228.02881904 -85.88671875 224.953125 C-86.58796875 224.89125 -87.28921875 224.829375 -88.01171875 224.765625 C-93.58799876 223.18971978 -96.7465207 219.69445984 -99.58203125 214.828125 C-102.84248115 208.13277532 -102.1063415 201.40140184 -101.83148193 194.17965698 C-101.17593415 183.03928209 -101.17593415 183.03928209 -104.20703125 172.6484375 C-107.5686643 169.44315947 -111.57220838 168.05704027 -115.94042969 166.68408203 C-120.96204822 164.7981405 -124.93929724 160.48018881 -128.88671875 156.953125 C-129.50675781 156.41558594 -130.12679687 155.87804687 -130.765625 155.32421875 C-147.11991126 140.18417184 -159.01280749 115.46931827 -160.00952148 93.21069336 C-160.79969873 62.70120547 -154.38898434 36.19628828 -133.296875 13.4375 C-98.78040342 -22.89562798 -41.24262796 -29.24375785 0 0 Z M-111.27734375 35.40625 C-125.38007238 51.42771722 -129.97858222 69.60222051 -129.04199219 90.54003906 C-127.98201157 107.01307118 -119.44783187 122.44227759 -107.88671875 133.953125 C-92.5883909 147.36507367 -74.61097456 154.16119633 -54.3359375 153.328125 C-33.80790664 151.9016386 -18.46079714 142.16357884 -4.61328125 127.5546875 C7.47943408 113.60868246 12.54388324 95.2256613 11.31591797 76.98535156 C9.64893024 60.2672722 2.27102065 44.52795909 -9.88671875 32.953125 C-10.61890625 32.23640625 -11.35109375 31.5196875 -12.10546875 30.78125 C-27.5581548 16.30795955 -45.83107202 12.20683243 -66.45898438 12.83007812 C-83.71126107 13.70448957 -99.480114 23.30059595 -111.27734375 35.40625 Z M-70.88671875 182.953125 C-70.88671875 187.243125 -70.88671875 191.533125 -70.88671875 195.953125 C-62.96671875 195.953125 -55.04671875 195.953125 -46.88671875 195.953125 C-46.88671875 191.663125 -46.88671875 187.373125 -46.88671875 182.953125 C-54.80671875 182.953125 -62.72671875 182.953125 -70.88671875 182.953125 Z " fill="#000000" transform="translate(229.88671875,73.046875)"/>
<path d="M0 0 C5.17043644 2.21384099 9.57980008 5.36221411 14.125 8.625 C15.2389917 9.42079468 15.2389917 9.42079468 16.37548828 10.23266602 C17.87648746 11.30802078 19.37570008 12.38587397 20.87304688 13.46630859 C22.21525104 14.43413763 23.55997628 15.39848875 24.90820312 16.35791016 C26.57079988 17.54133658 28.22325324 18.73897644 29.875 19.9375 C30.80054688 20.60652344 31.72609375 21.27554687 32.6796875 21.96484375 C35.96299718 24.84464904 37.73157846 27.33868828 38.43359375 31.68359375 C38.44203131 37.63207158 38.15558383 41.38268463 34 46 C30.50079486 49.07505906 27.37710213 50.15880255 22.75 50.3125 C22.02296875 50.34988281 21.2959375 50.38726562 20.546875 50.42578125 C18 50 18 50 11 46 C10.67 60.85 10.34 75.7 10 91 C13.36662842 90.98428955 16.73325684 90.9685791 20.2019043 90.95239258 C31.31787375 90.90271165 42.43384808 90.86955694 53.5498991 90.84456348 C60.29040374 90.82910005 67.03080314 90.80802069 73.77124023 90.77368164 C80.27456582 90.74056637 86.77782308 90.72315277 93.28122902 90.71536827 C95.76397232 90.70981975 98.24670955 90.69898506 100.72940636 90.68280983 C104.20344415 90.66107341 107.67702833 90.65803156 111.15112305 90.65942383 C112.18042938 90.648638 113.20973572 90.63785217 114.27023315 90.6267395 C121.29515587 90.65725883 124.68550201 91.68550201 129.75 96.75 C132.31410348 100.45370503 132.92141635 102.52073206 133 107 C132.05424117 111.98672837 130.75836643 115.53073868 127 119 C120.103254 122.35638603 113.15784224 122.42885435 105.63061523 122.38818359 C104.42295502 122.39344055 103.2152948 122.39869751 101.97103882 122.40411377 C98.68382506 122.41499707 95.39697827 122.41252839 92.10977054 122.40297651 C88.65553492 122.3953327 85.20132224 122.40243838 81.74708557 122.40713501 C75.94959165 122.41257818 70.15221275 122.40543816 64.35473633 122.39111328 C57.66824778 122.37478174 50.98203365 122.38008459 44.29555172 122.3965925 C38.53560883 122.41023936 32.77574818 122.41211168 27.01579434 122.40427649 C23.58389833 122.39961848 20.15213101 122.39892332 16.72024345 122.40888596 C12.89330473 122.41652126 9.06689003 122.40486634 5.23999023 122.38818359 C4.11404953 122.39425629 2.98810883 122.40032898 1.82804871 122.40658569 C-5.42388508 122.34814612 -11.91933492 121.99959494 -17.375 116.6875 C-20.31789994 111.82039626 -21.24857467 107.36450158 -21.31884766 101.71923828 C-21.33871735 100.4984256 -21.35858704 99.27761292 -21.37905884 98.01980591 C-21.39061005 96.71647308 -21.40216125 95.41314026 -21.4140625 94.0703125 C-21.4327915 92.71124112 -21.45236619 91.35218115 -21.4727478 89.99313354 C-21.52389241 86.43240108 -21.56361204 82.871631 -21.60089111 79.31072998 C-21.6410422 75.67060168 -21.69208364 72.0306275 -21.7421875 68.390625 C-21.83873715 61.26052976 -21.92320836 54.13033765 -22 47 C-22.94166016 47.48678223 -23.88332031 47.97356445 -24.85351562 48.47509766 C-29.09274721 50.52958559 -32.38628613 50.60466986 -37 50 C-41.71878688 48.30835942 -44.20582817 46.13951382 -47 42 C-47.88951276 39.33146173 -48.22066937 37.51458531 -48.3125 34.75 C-48.36857422 33.65945313 -48.36857422 33.65945313 -48.42578125 32.546875 C-47.47713988 26.87243302 -44.63345664 23.23632179 -40.19921875 19.82421875 C-38.7062247 18.76312239 -37.20168725 17.71812782 -35.6875 16.6875 C-34.49241821 15.85762573 -34.49241821 15.85762573 -33.27319336 15.01098633 C-31.64075697 13.88061309 -30.00443905 12.75582452 -28.36425781 11.63671875 C-26.16303121 10.11286258 -24.01189093 8.53949203 -21.8671875 6.9375 C-15.0002333 1.90612881 -8.86261321 -2.31748206 0 0 Z " fill="#000000" transform="translate(176,348)"/>
<path d="M0 0 C0.87785156 0.32452148 1.75570312 0.64904297 2.66015625 0.98339844 C9.88739137 3.74691808 16.21379392 6.52677559 19.6875 13.875 C20.4539865 19.12308614 20.31858796 23.42875675 18.1875 28.3125 C14.54028407 32.05089633 10.89730824 34.72251333 5.51879883 34.97802734 C-1.88000621 34.32323818 -8.17135441 31.87880856 -15 29.0625 C-24.35546828 25.33531618 -33.44877363 22.00198261 -43.3125 19.875 C-44.24191406 19.66488281 -45.17132813 19.45476562 -46.12890625 19.23828125 C-74.03097613 13.51165555 -100.78958946 20.44596556 -126.76171875 30.59375 C-127.47521484 30.87105957 -128.18871094 31.14836914 -128.92382812 31.43408203 C-130.26178946 31.95988951 -131.59556519 32.4965398 -132.92382812 33.04638672 C-137.78165345 34.96809286 -142.31278387 35.8353611 -147.38671875 34.2109375 C-152.70237787 31.04470955 -155.55649037 27.59663467 -157.25 21.5 C-157.3257477 17.10663367 -156.70167968 13.60124354 -154.3125 9.875 C-149.69332785 5.32711137 -144.88795292 3.15134855 -138.875 0.875 C-137.98973633 0.53178711 -137.10447266 0.18857422 -136.19238281 -0.16503906 C-88.8198507 -18.35102738 -47.24306103 -17.61745069 0 0 Z " fill="#000000" transform="translate(478.3125,176.125)"/>
<path d="M0 0 C3.56330004 3.89773947 5.9371472 7.51516132 6.03515625 12.94921875 C5.64970721 17.88484664 4.23145296 21.14020896 1 25 C-2.56267244 27.7188816 -5.57277191 28.54592532 -10 29 C-12.83203125 28.43359375 -12.83203125 28.43359375 -15.8125 27.4375 C-16.94300781 27.06625 -18.07351563 26.695 -19.23828125 26.3125 C-22.60759181 25.13691501 -25.96549865 23.93477065 -29.32128906 22.72143555 C-55.17743494 13.41797472 -74.98323044 15.2532442 -100.03857422 25.67602539 C-106.8313006 28.48493508 -111.81971938 29.66505584 -118.87890625 27.09375 C-122.81264553 25.06530249 -125.03061711 21.93876578 -127 18 C-127.59106487 12.31668392 -127.27243416 7.85222997 -124 3 C-119.77366577 -0.99108722 -115.08357076 -2.86728589 -109.75 -4.9375 C-108.86828125 -5.28377441 -107.9865625 -5.63004883 -107.078125 -5.98681641 C-71.48105783 -19.71291253 -33.89385175 -19.40971654 0 0 Z " fill="#000000" transform="translate(471,217)"/>
<path d="M0 0 C0.7221167 0.28818604 1.4442334 0.57637207 2.18823242 0.87329102 C7.71064035 3.18047909 11.9107251 5.45753208 14.875 10.875 C16.52078253 15.98558785 16.76549197 19.60974453 14.9375 24.6875 C12.28356684 28.75686417 9.69755085 31.59897636 5.12890625 33.26953125 C-2.18004449 34.70449956 -8.35556168 31.44418619 -14.9375 28.5625 C-21.04647683 25.92825999 -26.71338337 24.17540295 -33.2355957 26.31713867 C-35.66639264 27.34316198 -38.05436742 28.43022513 -40.4375 29.5625 C-47.62077062 32.97541831 -53.23712912 35.22145443 -61.125 32.4375 C-65.35801121 29.61549253 -68.29659664 26.48521008 -69.9375 21.5625 C-70.33430449 16.30484055 -69.83248146 13.00147158 -66.9375 8.5625 C-62.70708297 4.63246761 -58.61487073 2.16477788 -53.3125 -0.0625 C-52.6102832 -0.36099854 -51.90806641 -0.65949707 -51.18457031 -0.96704102 C-32.95054644 -8.51752041 -18.05216412 -7.25752958 0 0 Z " fill="#000000" transform="translate(436.9375,247.4375)"/>
<path d="M0 0 C3.84890591 2.17748718 7.07173283 4.71838265 10.42578125 7.58203125 C11.04130859 8.0821875 11.65683594 8.58234375 12.29101562 9.09765625 C17.11022002 13.1911083 19.87672186 16.98481341 20.48828125 23.4921875 C19.85876459 29.54144914 18.88338778 32.77991704 14.23828125 36.83203125 C10.26441082 39.31349256 6.34491841 40.20432126 1.67578125 39.83203125 C-6.27375812 37.90036748 -13.41571024 30.79956687 -18.76171875 24.83203125 C-21.87665554 19.7146351 -22.65086027 15.69832125 -21.76171875 9.83203125 C-20.34886265 5.30022865 -18.08562374 2.69164159 -13.94921875 0.39453125 C-9.07336485 -1.70416653 -4.97810929 -2.10531072 0 0 Z " fill="#000000" transform="translate(272.76171875,227.16796875)"/>
<path d="M0 0 C4.004793 2.0023965 6.6587028 4.17998877 9 8 C10.62778614 12.88335843 10.75079335 17.09554859 8.87890625 21.84375 C6.58720384 25.69342889 3.87264961 28.56742723 0.6875 31.6875 C0.13126953 32.25533203 -0.42496094 32.82316406 -0.99804688 33.40820312 C-5.2759754 37.65625089 -9.22477412 40.6402485 -15.375 41.4375 C-21.28805385 40.72385557 -25.34211166 38.69933554 -29.5 34.4375 C-31.58480629 29.65981891 -31.98008531 25.13103484 -31 20 C-28.33078309 15.24073588 -24.85351258 11.5462822 -21 7.75 C-20.47921875 7.22148437 -19.9584375 6.69296875 -19.421875 6.1484375 C-13.25330365 0.01102055 -8.58540153 -1.02029409 0 0 Z " fill="#000000" transform="translate(78,226)"/>
<path d="M0 0 C3.70690466 3.18966215 5.35775293 5.8129358 6.00390625 10.7109375 C6.31634411 17.42331208 4.72678674 20.82967487 0.23706055 25.97460938 C-1.36969102 27.70829506 -3.01805626 29.38920961 -4.6875 31.0625 C-5.23921875 31.63871094 -5.7909375 32.21492188 -6.359375 32.80859375 C-10.37396719 36.85145771 -13.77294762 39.02502366 -19.62109375 39.5 C-25.71541937 38.96325206 -29.32083 36.96188836 -33.3125 32.3125 C-35.73892452 28.30362471 -36.09942878 23.89721551 -35.3125 19.3125 C-32.25897828 11.38633724 -24.21664998 3.42308276 -17.1015625 -1.08984375 C-11.05113665 -3.6845916 -5.75475279 -2.93166652 0 0 Z " fill="#000000" transform="translate(283.3125,39.6875)"/>
<path d="M0 0 C1.30581401 1.25629212 2.59761599 2.5273112 3.875 3.8125 C4.51824219 4.40804687 5.16148438 5.00359375 5.82421875 5.6171875 C10.52677841 10.05356454 13.93182191 14.10530582 14.25 20.8125 C13.99957769 26.29048796 11.97018508 29.63908741 8.25 33.625 C4.55181142 36.4605838 0.47644033 37.28368749 -4.125 36.8125 C-10.31805868 34.82810444 -13.9810859 31.51330855 -18.4375 26.875 C-19.05689453 26.25431641 -19.67628906 25.63363281 -20.31445312 24.99414062 C-24.60538832 20.6193435 -27.39993271 17.35427268 -27.5 11 C-27.38458275 5.7831404 -26.26604364 2.97226049 -23.125 -1.1875 C-15.68077808 -6.91382455 -6.9683951 -6.0212346 0 0 Z " fill="#000000" transform="translate(82.125,42.1875)"/>
<path d="M0 0 C1.01642578 -0.03738281 2.03285156 -0.07476562 3.08007812 -0.11328125 C9.90882021 -0.19263397 14.60441348 0.78270926 19.8125 5.375 C23.20649399 10.04174174 23.67008688 14.78119468 22.8125 20.375 C21.21581752 25.22207181 18.52578448 28.1102302 14.00854492 30.56567383 C9.55876394 32.20558755 4.93257502 31.90501742 0.25 31.8125 C-0.76513672 31.81958984 -1.78027344 31.82667969 -2.82617188 31.83398438 C-9.60963561 31.77638475 -14.3916115 31.09322493 -19.4375 26.1875 C-22.10302594 21.90361902 -23.58748206 18.12889947 -22.84765625 13.03515625 C-21.26354417 7.40171623 -19.02891639 4.60261093 -14.1875 1.375 C-9.53466463 -0.17594512 -4.87457155 0.0667334 0 0 Z " fill="#000000" transform="translate(36.1875,137.625)"/>
<path d="M0 0 C1.47823242 -0.0309375 1.47823242 -0.0309375 2.98632812 -0.0625 C10.18804744 -0.10119292 14.58588049 0.82182179 20 5.875 C22.90004412 9.65725819 23.45749585 13.56189031 23.1875 18.25 C21.51928897 24.13780365 19.0264666 26.82239866 14.1875 30.25 C9.64201791 31.7651607 5.13654489 31.47537663 0.375 31.5 C-0.61048828 31.520625 -1.59597656 31.54125 -2.61132812 31.5625 C-8.92044474 31.5963972 -13.5898251 31.18944694 -18.45703125 26.75 C-22.32242229 21.78575197 -23.23839854 18.53200341 -22.8125 12.25 C-20.91922504 6.9909029 -18.21466785 4.45991406 -13.8125 1.25 C-9.26701791 -0.2651607 -4.76154489 0.02462337 0 0 Z " fill="#000000" transform="translate(305.8125,137.75)"/>
<path d="M0 0 C3.52874201 3.10101571 6.88641353 6.3982938 7.23950195 11.23925781 C7.30580581 14.51377034 7.34743204 17.7874268 7.375 21.0625 C7.40400391 22.19558594 7.43300781 23.32867188 7.46289062 24.49609375 C7.5117562 30.90876098 7.46199946 34.98119782 3.0625 39.8125 C-1.20579234 43.56342357 -5.13270442 44.16548436 -10.65625 44.09375 C-15.3889382 43.51026789 -18.13476711 40.68031934 -21.25 37.3125 C-24.55332705 32.41868215 -24.15225851 27.28043125 -24.1875 21.5625 C-24.208125 20.74136719 -24.22875 19.92023437 -24.25 19.07421875 C-24.28864318 12.97825732 -23.72671903 6.90431867 -19.44775391 2.16113281 C-14.04281167 -2.66539498 -6.47846162 -2.61895257 0 0 Z " fill="#000000" transform="translate(178.9375,1.1875)"/>
<path d="M0 0 C3.58505585 3.07290502 5.38386851 5.02958084 5.90625 9.83984375 C6.07350364 15.03167552 6.20384648 19.17751952 2.625 23.25 C-2.43171939 27.6900463 -5.29706362 28.55589707 -11.90625 28.4609375 C-16.70770325 28.05068675 -18.81608535 25.80891465 -22.125 22.5 C-24.72843272 18.73948608 -25.375 16.81075832 -25.375 12.25 C-24.48176629 7.62712379 -23.31492429 4.21465914 -20 0.8125 C-13.03316118 -3.33442787 -7.33134708 -3.80143923 0 0 Z " fill="#000000" transform="translate(420.375,447.75)"/>
</svg>
