

<svg version="1.0" xmlns="http://www.w3.org/2000/svg"
    width="329.000000pt" height="145.000000pt" viewBox="0 0 329.000000 145.000000"
    preserveAspectRatio="xMidYMid meet">

    <g transform="translate(0.000000,145.000000) scale(0.100000,-0.100000)"
    style="fill:white;" stroke="none">
        <path
            d="M560 1130 c0 -47 2 -50 25 -50 23 0 25 3 25 50 0 47 -2 50 -25 50
-23 0 -25 -3 -25 -50z" />
        <path
            d="M380 1095 c-11 -13 -8 -21 21 -51 33 -34 33 -34 53 -14 20 20 20 20
-9 50 -32 34 -47 37 -65 15z" />
        <path
            d="M722 1077 c-31 -32 -32 -34 -14 -50 17 -16 20 -15 52 18 28 29 31 37
20 50 -17 21 -22 20 -58 -18z" />
        <path
            d="M534 1020 c-22 -9 -74 -65 -74 -81 0 -5 29 -9 64 -9 l65 0 16 -57
c26 -92 22 -87 48 -71 34 23 59 77 52 117 -16 86 -94 132 -171 101z" />
        <path
            d="M1910 771 c0 -203 2 -231 18 -250 19 -24 70 -36 91 -22 18 12 7 41
-17 41 -39 0 -42 16 -42 242 l0 218 -25 0 -25 0 0 -229z" />
        <path
            d="M2099 984 c-17 -21 0 -49 31 -49 31 0 48 28 31 49 -8 9 -21 16 -31
16 -10 0 -23 -7 -31 -16z" />
        <path
            d="M1037 974 c-4 -4 -7 -112 -7 -241 l0 -233 30 0 30 0 0 115 0 115 43
1 c23 0 78 1 122 1 l79 0 1 -114 0 -113 28 -3 27 -3 0 241 0 241 -27 -3 -28
-3 -2 -95 -2 -95 -120 -3 -120 -3 -3 98 c-3 90 -5 98 -23 101 -12 2 -24 0 -28
-4z" />
        <path
            d="M760 905 c0 -23 3 -25 50 -25 47 0 50 2 50 25 0 23 -3 25 -50 25 -47
0 -50 -2 -50 -25z" />
        <path
            d="M115 868 c-2 -7 -8 -30 -14 -50 l-9 -38 64 0 64 0 0 34 c0 19 3 41 6
50 5 13 -3 16 -50 16 -36 0 -58 -4 -61 -12z" />
        <path
            d="M276 858 c-3 -13 -6 -35 -6 -50 0 -28 1 -28 66 -28 l67 0 -7 38 c-3
20 -6 43 -6 50 0 8 -17 12 -54 12 -47 0 -54 -3 -60 -22z" />
        <path d="M447 833 c3 -27 7 -49 8 -51 2 -2 30 -2 62 0 l60 3 -14 48 -14 47
-54 0 -55 0 7 -47z" />
        <path
            d="M1622 860 c-88 -21 -138 -130 -112 -240 15 -62 54 -105 109 -120 64
-17 119 -4 160 37 33 33 34 36 17 49 -17 12 -22 11 -42 -11 -62 -67 -176 -32
-191 59 l-6 36 127 0 126 0 0 50 c0 87 -37 131 -120 143 -19 3 -50 2 -68 -3z
m91 -51 c26 -12 47 -47 47 -79 0 -19 -7 -20 -100 -20 -66 0 -100 4 -100 11 0
24 32 77 53 87 29 14 71 15 100 1z" />
        <path
            d="M2367 856 c-50 -19 -67 -34 -88 -81 -40 -86 -13 -215 52 -254 101
-61 235 -12 255 94 11 63 0 148 -25 183 -41 59 -125 83 -194 58z m102 -47 c44
-15 65 -60 65 -134 -1 -70 -14 -99 -54 -120 -56 -29 -125 -10 -148 40 -15 33
-16 136 -1 169 12 25 60 55 90 56 9 0 30 -5 48 -11z" />
        <path
            d="M2743 859 c-64 -19 -94 -98 -55 -145 22 -27 44 -38 110 -54 62 -14
91 -45 72 -79 -25 -47 -88 -54 -145 -15 -32 22 -40 23 -52 11 -52 -52 121
-110 201 -67 70 37 73 141 5 175 -15 8 -49 19 -75 25 -78 18 -106 57 -66 93
26 24 93 22 124 -3 25 -19 48 -12 48 16 0 34 -106 62 -167 43z" />
        <path d="M2100 680 l0 -180 30 0 30 0 0 180 0 180 -30 0 -30 0 0 -180z" />
        <path
            d="M700 775 c-11 -13 -8 -21 21 -51 33 -34 33 -34 53 -14 20 20 20 20
-9 50 -32 34 -47 37 -65 15z" />
        <path
            d="M71 708 c-4 -13 -11 -35 -15 -50 l-6 -28 80 0 80 0 0 50 0 50 -65 0
c-59 0 -66 -2 -74 -22z" />
        <path
            d="M267 723 c-4 -3 -7 -26 -7 -50 l0 -43 75 0 75 0 0 28 c0 66 -7 72
-74 72 -35 0 -66 -3 -69 -7z" />
        <path d="M460 680 l0 -50 80 0 80 0 -6 28 c-18 72 -18 72 -89 72 l-65 0 0 -50z" />
        <path d="M18 530 l-16 -50 99 0 99 0 0 50 0 50 -83 0 -83 0 -16 -50z" />
        <path
            d="M257 574 c-4 -4 -7 -27 -7 -51 l0 -43 86 0 85 0 -3 48 -3 47 -75 3
c-42 1 -79 0 -83 -4z" />
        <path d="M470 530 l0 -50 96 0 96 0 -6 25 c-19 76 -18 75 -106 75 l-80 0 0
-50z" />
        <path
            d="M305 422 c-3 -3 -5 -16 -5 -29 0 -21 -4 -23 -51 -23 -47 0 -50 -2
-47 -22 3 -22 6 -23 128 -23 121 0 125 1 128 22 3 20 -2 22 -50 25 -47 3 -53
6 -58 28 -5 23 -31 36 -45 22z" />
    </g>
</svg>
